HIERARCHY
ROOT Hips
{
    OFFSET   0.000000   0.000000   0.000000
    CHANNELS 6 Xposition Yposition Zposition Zrotation Xrotation Yrotation
    JOINT Chest
    {
        OFFSET   0.000000   8.007240   0.000000
        CHANNELS 3 Zrotation Xrotation Yrotation
        JOINT Chest2
        {
            OFFSET   0.000000  22.077100   0.000000
            CHANNELS 3 Zrotation Xrotation Yrotation
            JOINT Neck
            {
                OFFSET   0.000000  23.254800   0.000000
                CHANNELS 3 Zrotation Xrotation Yrotation
                JOINT Head
                {
                    OFFSET   0.000000  14.370000   1.956600
                    CHANNELS 3 Zrotation Xrotation Yrotation
                    End Site
                    {
                        OFFSET   0.000000  19.566000   0.000000
                    }
                }
            }
            JOINT LeftCollar
            {
                OFFSET   3.911900  19.017000  -0.467064
                CHANNELS 3 Zrotation Xrotation Yrotation
                JOINT LeftShoulder
                {
                    OFFSET  10.383700   0.000000   0.000000
                    CHANNELS 3 Zrotation Xrotation Yrotation
                    JOINT LeftElbow
                    {
                        OFFSET  26.662100   0.001476   0.000517
                        CHANNELS 3 Zrotation Xrotation Yrotation
                        JOINT LeftWrist
                        {
                            OFFSET  28.869000  -0.000025  -0.000106
                            CHANNELS 3 Zrotation Xrotation Yrotation
                            JOINT LeftFinger0
                            {
                                OFFSET   2.044660  -2.323460   3.252850
                                CHANNELS 3 Zrotation Xrotation Yrotation
                                JOINT LeftFinger01
                                {
                                    OFFSET   3.088130   0.000000   0.000000
                                    CHANNELS 3 Zrotation Xrotation Yrotation
                                    JOINT LeftFinger02
                                    {
                                        OFFSET   2.639460   0.000000   0.000000
                                        CHANNELS 3 Zrotation Xrotation Yrotation
                                        End Site
                                        {
                                            OFFSET   2.582190   0.000000   0.000000
                                        }
                                    }
                                }
                            }
                            JOINT LeftFinger1
                            {
                                OFFSET   8.364480   0.000000   3.252850
                                CHANNELS 3 Zrotation Xrotation Yrotation
                                JOINT LeftFinger11
                                {
                                    OFFSET   4.646930   0.000000   0.000000
                                    CHANNELS 3 Zrotation Xrotation Yrotation
                                    JOINT LeftFinger12
                                    {
                                        OFFSET   2.323460   0.000000   0.000000
                                        CHANNELS 3 Zrotation Xrotation Yrotation
                                        End Site
                                        {
                                            OFFSET   2.273050   0.000000   0.000000
                                        }
                                    }
                                }
                            }
                            JOINT LeftFinger2
                            {
                                OFFSET   8.364490   0.000015   1.078090
                                CHANNELS 3 Zrotation Xrotation Yrotation
                                JOINT LeftFinger21
                                {
                                    OFFSET   5.111620   0.000000   0.000000
                                    CHANNELS 3 Zrotation Xrotation Yrotation
                                    JOINT LeftFinger22
                                    {
                                        OFFSET   2.788160   0.000016   0.000000
                                        CHANNELS 3 Zrotation Xrotation Yrotation
                                        End Site
                                        {
                                            OFFSET   2.727660   0.000000   0.000000
                                        }
                                    }
                                }
                            }
                            JOINT LeftFinger3
                            {
                                OFFSET   7.899780   0.000017  -1.078090
                                CHANNELS 3 Zrotation Xrotation Yrotation
                                JOINT LeftFinger31
                                {
                                    OFFSET   4.646930   0.000000   0.000000
                                    CHANNELS 3 Zrotation Xrotation Yrotation
                                    JOINT LeftFinger32
                                    {
                                        OFFSET   2.323470   0.000000   0.000000
                                        CHANNELS 3 Zrotation Xrotation Yrotation
                                        End Site
                                        {
                                            OFFSET   2.273050   0.000000   0.000000
                                        }
                                    }
                                }
                            }
                            JOINT LeftFinger4
                            {
                                OFFSET   7.435090   0.000000  -3.252850
                                CHANNELS 3 Zrotation Xrotation Yrotation
                                JOINT LeftFinger41
                                {
                                    OFFSET   3.717550   0.000000   0.000000
                                    CHANNELS 3 Zrotation Xrotation Yrotation
                                    JOINT LeftFinger42
                                    {
                                        OFFSET   1.858770   0.000000   0.000000
                                        CHANNELS 3 Zrotation Xrotation Yrotation
                                        End Site
                                        {
                                            OFFSET   1.818440   0.000000   0.000000
                                        }
                                    }
                                }
                            }
                        }
                    }
                }
            }
            JOINT RightCollar
            {
                OFFSET  -3.911900  19.017000  -0.467063
                CHANNELS 3 Zrotation Xrotation Yrotation
                JOINT RightShoulder
                {
                    OFFSET -10.383700   0.000019   0.000000
                    CHANNELS 3 Zrotation Xrotation Yrotation
                    JOINT RightElbow
                    {
                        OFFSET -26.662100   0.001175   0.000102
                        CHANNELS 3 Zrotation Xrotation Yrotation
                        JOINT RightWrist
                        {
                            OFFSET -28.869000   0.000016  -0.000079
                            CHANNELS 3 Zrotation Xrotation Yrotation
                            JOINT RightFinger0
                            {
                                OFFSET  -2.044660  -2.323490   3.252850
                                CHANNELS 3 Zrotation Xrotation Yrotation
                                JOINT RightFinger01
                                {
                                    OFFSET  -3.088140   0.000000   0.000000
                                    CHANNELS 3 Zrotation Xrotation Yrotation
                                    JOINT RightFinger02
                                    {
                                        OFFSET  -2.639460   0.000000   0.000000
                                        CHANNELS 3 Zrotation Xrotation Yrotation
                                        End Site
                                        {
                                            OFFSET  -2.582190   0.000000   0.000000
                                        }
                                    }
                                }
                            }
                            JOINT RightFinger1
                            {
                                OFFSET  -8.364480   0.000000   3.252850
                                CHANNELS 3 Zrotation Xrotation Yrotation
                                JOINT RightFinger11
                                {
                                    OFFSET  -4.646930   0.000000   0.000000
                                    CHANNELS 3 Zrotation Xrotation Yrotation
                                    JOINT RightFinger12
                                    {
                                        OFFSET  -2.323470   0.000000   0.000000
                                        CHANNELS 3 Zrotation Xrotation Yrotation
                                        End Site
                                        {
                                            OFFSET  -2.273050   0.000000   0.000000
                                        }
                                    }
                                }
                            }
                            JOINT RightFinger2
                            {
                                OFFSET  -8.364480   0.000000   1.078090
                                CHANNELS 3 Zrotation Xrotation Yrotation
                                JOINT RightFinger21
                                {
                                    OFFSET  -5.111620   0.000000   0.000000
                                    CHANNELS 3 Zrotation Xrotation Yrotation
                                    JOINT RightFinger22
                                    {
                                        OFFSET  -2.788160   0.000000   0.000000
                                        CHANNELS 3 Zrotation Xrotation Yrotation
                                        End Site
                                        {
                                            OFFSET  -2.727660   0.000000   0.000000
                                        }
                                    }
                                }
                            }
                            JOINT RightFinger3
                            {
                                OFFSET  -7.899780   0.000000  -1.078090
                                CHANNELS 3 Zrotation Xrotation Yrotation
                                JOINT RightFinger31
                                {
                                    OFFSET  -4.646930   0.000000   0.000000
                                    CHANNELS 3 Zrotation Xrotation Yrotation
                                    JOINT RightFinger32
                                    {
                                        OFFSET  -2.323470   0.000000   0.000000
                                        CHANNELS 3 Zrotation Xrotation Yrotation
                                        End Site
                                        {
                                            OFFSET  -2.273050   0.000000   0.000000
                                        }
                                    }
                                }
                            }
                            JOINT RightFinger4
                            {
                                OFFSET  -7.435090   0.000000  -3.252850
                                CHANNELS 3 Zrotation Xrotation Yrotation
                                JOINT RightFinger41
                                {
                                    OFFSET  -3.717550   0.000000   0.000000
                                    CHANNELS 3 Zrotation Xrotation Yrotation
                                    JOINT RightFinger42
                                    {
                                        OFFSET  -1.858770   0.000000   0.000000
                                        CHANNELS 3 Zrotation Xrotation Yrotation
                                        End Site
                                        {
                                            OFFSET  -1.818440   0.000000   0.000000
                                        }
                                    }
                                }
                            }
                        }
                    }
                }
            }
        }
    }
    JOINT LeftHip
    {
        OFFSET   9.783040   0.000000   0.000000
        CHANNELS 3 Zrotation Xrotation Yrotation
        JOINT LeftKnee
        {
            OFFSET   0.000032 -41.789100  -0.002222
            CHANNELS 3 Zrotation Xrotation Yrotation
            JOINT LeftAnkle
            {
                OFFSET   0.000087 -41.133200  -0.000135
                CHANNELS 3 Zrotation Xrotation Yrotation
                JOINT LeftToe
                {
                    OFFSET   0.000000  -6.358960  14.674500
                    CHANNELS 3 Zrotation Xrotation Yrotation
                    End Site
                    {
                        OFFSET   0.000000   0.000000   3.913200
                    }
                }
            }
        }
    }
    JOINT RightHip
    {
        OFFSET  -9.783040   0.000000   0.000000
        CHANNELS 3 Zrotation Xrotation Yrotation
        JOINT RightKnee
        {
            OFFSET   0.000047 -41.789100  -0.000896
            CHANNELS 3 Zrotation Xrotation Yrotation
            JOINT RightAnkle
            {
                OFFSET  -0.000117 -41.133300  -0.000248
                CHANNELS 3 Zrotation Xrotation Yrotation
                JOINT RightToe
                {
                    OFFSET   0.000000  -6.358970  14.674500
                    CHANNELS 3 Zrotation Xrotation Yrotation
                    End Site
                    {
                        OFFSET   0.000000   0.000000   3.913200
                    }
                }
            }
        }
    }
}
MOTION
Frames: 4
Frame Time:   0.016667
  0.176477  89.478600   2.167580  -1.794350   0.087815   3.929380   0.865189   0.786383  -0.795527   1.741450   1.560590  -1.603060   0.625518  -0.395128   0.008598   1.027910  -0.797502   0.791841  -4.563950   2.513610  -2.119120 -70.974900  13.950600  -4.730520  -2.734520  -7.658720  -9.582470   2.359450 -11.632000   9.606080  42.791000  32.166200 -71.575200  -5.720300  -0.002090  -0.000152   2.139840  -0.001049  -0.003360 -24.337600   3.439930  -7.578290 -20.098500   0.002288  -0.001999 -14.069000   0.002071   0.000416 -26.132200   2.294130  -4.683320 -26.225700   0.003861  -0.002990 -17.475000   0.002919  -0.010038 -26.266600   0.785442  -1.591100 -26.277500   0.003474  -0.002313 -17.507100   0.002679  -0.000883 -29.466100   0.110209  -0.221513 -44.199600   0.004482   0.000440 -29.437000   0.002864   0.001292   8.336980   1.104260   7.601270  71.343600  10.613800   0.422128  -0.901960   1.358700   9.318850 -15.444600 -14.372400  -2.633000 -43.421300  40.949200  80.636400  28.616400   0.008692  -0.004650   9.308180   0.001512  -0.007869  29.778000   4.710860   8.165430  24.639100   0.004928  -0.002653  17.247300  -0.006269   0.000172  27.881000   3.039990   5.733630  32.217200   0.001756  -0.009521  21.456700  -0.000353  -0.004133  28.038600   1.680030   3.121260  32.569400   0.000548  -0.002411  21.691200   0.004235  -0.006929  33.678900   0.524363   0.803531  50.523800  -0.002398  -0.003945  33.648800   0.000093  -0.005190   3.050880   3.110090   4.678220   0.401928   0.857584  11.233200  -4.142420  -3.319130   1.202940   0.000000   0.000000   0.000000   0.573950  -0.749224  -8.618180   2.128800   3.521460  -6.694420  -5.397870  -2.219550  -2.932240  -0.000000   0.000000   0.000000
  0.176534  89.478600   2.167610  -1.794330   0.087844   3.929380   0.865187   0.786319  -0.795535   1.741440   1.560460  -1.603080   0.630746  -0.394981   0.008730   1.036680  -0.797106   0.789645  -4.563760   2.513180  -2.122290 -70.971400  13.961800  -4.741070  -2.734700  -7.664140  -9.579770   2.353300 -11.624500   9.605980  42.773700  32.162100 -71.581700  -5.760270  -0.002096  -0.000156   2.119860  -0.001054  -0.003363 -24.341100   3.439980  -7.571980 -20.101400   0.002289  -0.002000 -14.071000   0.002074   0.000414 -26.133800   2.294230  -4.675110 -26.227200   0.003861  -0.002990 -17.473100   0.002919  -0.010042 -26.268200   0.781399  -1.582700 -26.279100   0.003475  -0.002314 -17.506300   0.002680  -0.000884 -29.466100   0.110078  -0.214639 -44.199500   0.004481   0.000441 -29.436900   0.002863   0.001291   8.337060   1.104250   7.593970  71.337600  10.634100   0.416032  -0.902422   1.359350   9.318890 -15.440600 -14.377700  -2.648320 -43.398600  40.942600  80.623200  28.636900   0.008693  -0.004657   9.318460   0.001512  -0.007854  29.791800   4.715320   8.170120  24.650800   0.004928  -0.002653  17.255500  -0.006269   0.000171  27.886200   3.043350   5.734570  32.254200   0.001756  -0.009520  21.481300  -0.000355  -0.004134  28.043200   1.680190   3.126380  32.600800   0.000549  -0.002409  21.712100   0.004236  -0.006931  33.691200   0.524515   0.799180  50.542200  -0.002397  -0.003947  33.661000   0.000091  -0.005191   3.052320   3.092100   4.678040   0.403150   0.887617  11.232700  -4.146580  -3.336820   1.201910   0.000000   0.000000  -0.000000   0.573950  -0.749216  -8.618290   2.127440   3.518640  -6.682940  -5.397990  -2.218260  -2.946260   0.000000   0.000000   0.000000
  0.176590  89.478500   2.167720  -1.794320   0.087894   3.929380   0.865179   0.786254  -0.795544   1.741430   1.560330  -1.603090   0.640169  -0.394834   0.008863   1.052360  -0.796711   0.783942  -4.563440   2.512750  -2.128440 -70.965800  13.980700  -4.757920  -2.735420  -7.674940  -9.574490   2.338250 -11.604900   9.605520  42.758400  32.158500 -71.589300  -5.800240  -0.002107  -0.000163   2.099880  -0.001063  -0.003370 -24.344700   3.440030  -7.565680 -20.104300   0.002291  -0.002001 -14.073000   0.002080   0.000407 -26.135300   2.294390  -4.666900 -26.228700   0.003861  -0.002990 -17.468400   0.002918  -0.010054 -26.270000   0.775607  -1.570950 -26.280600   0.003476  -0.002314 -17.502900   0.002680  -0.000885 -29.465600   0.109894  -0.207765 -44.198700   0.004480   0.000444 -29.436300   0.002862   0.001287   8.337250   1.104090   7.582030  71.326500  10.663400   0.406450  -0.902884   1.359990   9.318930 -15.428100 -14.384900  -2.668320 -43.367900  40.931400  80.611600  28.657500   0.008694  -0.004671   9.328740   0.001511  -0.007839  29.813500   4.721740   8.174840  24.669100   0.004926  -0.002652  17.268300  -0.006269   0.000169  27.894000   3.048700   5.737480  32.309200   0.001753  -0.009518  21.517900  -0.000360  -0.004136  28.050400   1.680350   3.134120  32.651300   0.000550  -0.002402  21.745800   0.004237  -0.006934  33.711200   0.524667   0.792081  50.572100  -0.002396  -0.003949  33.681000   0.000086  -0.005191   3.053760   3.074100   4.677860   0.404374   0.917650  11.232200  -4.150750  -3.354510   1.200880   0.000000   0.000000   0.000000   0.573957  -0.749158  -8.618410   2.125350   3.512460  -6.666100  -5.398150  -2.215130  -2.963630   0.000000   0.000000   0.000000
  0.176586  89.478500   2.168030  -1.794310   0.087943   3.928920   0.865081   0.789500  -0.795480   1.741290   1.566820  -1.603040   0.649423  -0.394886   0.008787   1.067420  -0.797225   0.775480  -4.563150   2.512830  -2.135690 -70.958300  13.996000  -4.768740  -2.738950  -7.688030  -9.567520   2.313000 -11.571000   9.604440  42.771400  32.162700 -71.587600  -5.786630  -0.002116  -0.000171   2.106690  -0.001068  -0.003379 -24.334300   3.439970  -7.571590 -20.095900   0.002293  -0.002001 -14.067100   0.002090   0.000397 -26.124800   2.294560  -4.670130 -26.218400   0.003861  -0.002989 -17.460000   0.002917  -0.010073 -26.259700   0.773498  -1.567360 -26.270200   0.003477  -0.002313 -17.494600   0.002682  -0.000888 -29.455700   0.109816  -0.209211 -44.183800   0.004479   0.000448 -29.426400   0.002860   0.001279   8.337550   1.103480   7.572160  71.315900  10.675400   0.399128  -0.900115   1.356570   9.318810 -15.405100 -14.387900  -2.673780 -43.345000  40.919400  80.631500  28.647100   0.008697  -0.004692   9.323540   0.001504  -0.007844  29.829300   4.723290   8.174260  24.682800   0.004917  -0.002642  17.277900  -0.006263   0.000167  27.898600   3.051580   5.741200  32.343300   0.001749  -0.009522  21.540600  -0.000368  -0.004137  28.056100   1.678680   3.136460  32.690200   0.000547  -0.002390  21.771700   0.004236  -0.006933  33.727600   0.524367   0.786228  50.596800  -0.002396  -0.003947  33.697500   0.000082  -0.005188   3.054040   3.082200   4.677900   0.404637   0.900870  11.232200  -4.150150  -3.348140   1.200940   0.000000   0.000000   0.000000   0.573962  -0.747661  -8.618200   2.126580   3.503230  -6.656120  -5.400120  -2.210300  -2.967540  -0.000000   0.000000  -0.000000
